<?xml version="1.0" encoding="UTF-8" standalone="no"?>
<svg width="11px" height="22px" viewBox="0 0 11 22" version="1.1" xmlns="http://www.w3.org/2000/svg" xmlns:xlink="http://www.w3.org/1999/xlink">
    <!-- Generator: Sketch 3.6.1 (26313) - http://www.bohemiancoding.com/sketch -->
    <title>Page 1</title>
    <desc>Created with Sketch.</desc>
    <defs>
        <path id="path-1" d="M5.03939184,21.6895755 L10.0786939,21.6895755 L10.0786939,-0.000179591837 L5.03939184,-0.000179591837 L8.97959194e-05,-0.000179591837 L8.97959194e-05,21.6895755 L5.03939184,21.6895755 L5.03939184,21.6895755 Z"></path>
    </defs>
    <g id="Page-1" stroke="none" stroke-width="1" fill="none" fill-rule="evenodd">
        <g id="Production-Detail-HIghlights-,-Logo" transform="translate(-375.000000, -871.000000)">
            <g id="Page-1" transform="translate(375.000000, 871.000000)">
                <mask id="mask-2" fill="white">
                    <use xlink:href="#path-1"></use>
                </mask>
                <g id="Clip-2"></g>
                <path d="M10.0787837,7.02320816 L6.64678367,7.02320816 L6.64678367,4.77202449 C6.64678367,3.92659592 7.20666122,3.72949388 7.60086531,3.72949388 L10.0231102,3.72949388 L10.0231102,0.0132897959 L6.68719184,-0.000179591837 C2.98400816,-0.000179591837 2.14127347,2.77182041 2.14127347,4.54573878 L2.14127347,7.02320816 L8.97959194e-05,7.02320816 L8.97959194e-05,10.8525551 L2.14127347,10.8525551 L2.14127347,21.6895755 L6.64678367,21.6895755 L6.64678367,10.8525551 L9.68547755,10.8525551 L10.0787837,7.02320816 Z" id="Fill-1" fill="#F16736" mask="url(#mask-2)"></path>
            </g>
        </g>
    </g>
</svg>