<?xml version="1.0" encoding="UTF-8" standalone="no"?>
<svg width="20px" height="21px" viewBox="0 0 20 21" version="1.1" xmlns="http://www.w3.org/2000/svg" xmlns:xlink="http://www.w3.org/1999/xlink">
    <!-- Generator: Sketch 3.6.1 (26313) - http://www.bohemiancoding.com/sketch -->
    <title>Instagram</title>
    <desc>Created with Sketch.</desc>
    <defs>
        <path id="path-1" d="M0,0.169535519 L19.9060965,0.169535519 L19.9060965,19.9453552 L0,19.9453552 L0,0.169535519 Z"></path>
    </defs>
    <g id="Page-1" stroke="none" stroke-width="1" fill="none" fill-rule="evenodd">
        <g id="Production-Detail-HIghlights-,-Logo" transform="translate(-442.000000, -872.000000)">
            <g id="Description" transform="translate(0.000000, 584.000000)">
                <g id="Social-Media-Icons" transform="translate(403.000000, 288.357923)">
                    <g id="Instagram" transform="translate(39.000000, 0.000000)">
                        <mask id="mask-2" fill="white">
                            <use xlink:href="#path-1"></use>
                        </mask>
                        <g id="Clip-2"></g>
                        <path d="M17.9667619,16.1237852 C17.9667619,17.1689219 17.1111081,18.018594 16.0591077,18.018594 L3.84706918,18.018594 C2.79506876,18.018594 1.93941498,17.1689219 1.93941498,16.1237852 L1.93941498,8.02756667 L4.91071388,8.02756667 C4.65453973,8.65464863 4.50999005,9.33957213 4.50999005,10.0576049 C4.50999005,13.0386377 6.95127348,15.4651896 9.95308842,15.4651896 C12.9549034,15.4651896 15.3961868,13.0386377 15.3961868,10.0576049 C15.3961868,9.33957213 15.2508341,8.65464863 14.9946599,8.02756667 L17.9667619,8.02756667 L17.9667619,16.1237852 Z M7.11228575,8.02756667 C7.74950891,7.15116776 8.78384215,6.57634262 9.95308842,6.57634262 C11.1223347,6.57634262 12.1566679,7.15116776 12.7938911,8.02756667 C13.2086684,8.59999836 13.4572135,9.29968142 13.4572135,10.0576049 C13.4572135,11.9759492 11.8844327,13.5376705 9.95308842,13.5376705 C8.02094108,13.5376705 6.44936488,11.9759492 6.44936488,10.0576049 C6.44936488,9.29968142 6.69750849,8.59999836 7.11228575,8.02756667 L7.11228575,8.02756667 Z M17.1625035,2.44885082 L17.602577,2.44725519 L17.602577,2.88246284 L17.602577,5.79887268 L14.2397894,5.80964317 L14.2281451,2.45802568 L17.1625035,2.44885082 Z M16.0591077,0.169495628 L3.84706918,0.169495628 C1.72580268,0.169495628 4.0152685e-05,1.88359945 4.0152685e-05,3.99102568 L4.0152685e-05,8.02756667 L4.0152685e-05,16.1237852 C4.0152685e-05,18.2312115 1.72580268,19.9453153 3.84706918,19.9453153 L16.0591077,19.9453153 C18.1803742,19.9453153 19.9061367,18.2312115 19.9061367,16.1237852 L19.9061367,8.02756667 L19.9061367,3.99102568 C19.9061367,1.88359945 18.1803742,0.169495628 16.0591077,0.169495628 L16.0591077,0.169495628 Z" id="Fill-1" fill="#F26836" mask="url(#mask-2)"></path>
                    </g>
                </g>
            </g>
        </g>
    </g>
</svg>