<?xml version="1.0" encoding="UTF-8" standalone="no"?>
<svg width="28px" height="13px" viewBox="0 0 28 13" version="1.1" xmlns="http://www.w3.org/2000/svg" xmlns:xlink="http://www.w3.org/1999/xlink">
    <!-- Generator: Sketch 3.6.1 (26313) - http://www.bohemiancoding.com/sketch -->
    <title>Soundcloud</title>
    <desc>Created with Sketch.</desc>
    <defs>
        <path id="path-1" d="M0,0.322026826 L26.8887273,0.322026826 L26.8887273,11.9672131 L0,11.9672131 L0,0.322026826 Z"></path>
    </defs>
    <g id="Page-1" stroke="none" stroke-width="1" fill="none" fill-rule="evenodd">
        <g id="Production-Detail-HIghlights-,-Logo" transform="translate(-553.000000, -877.000000)">
            <g id="Description" transform="translate(0.000000, 584.000000)">
                <g id="Social-Media-Icons" transform="translate(403.000000, 288.357923)">
                    <g id="Soundcloud" transform="translate(150.693878, 4.986339)">
                        <mask id="mask-2" fill="white">
                            <use xlink:href="#path-1"></use>
                        </mask>
                        <g id="Clip-2"></g>
                        <path d="M14.4143455,11.9624262 C14.4225273,11.9635142 23.5228909,11.9673219 23.5818,11.9673219 C25.4085273,11.9673219 26.8888909,10.491003 26.8888909,8.6687228 C26.8888909,6.84698659 25.4085273,5.37066766 23.5818,5.37066766 C23.1290727,5.37066766 22.6959818,5.46259762 22.3027091,5.62633085 C22.0387091,2.65356632 19.5399818,0.322135618 16.4914364,0.322135618 C15.7447091,0.322135618 15.0176182,0.468461997 14.3756182,0.716509687 C14.1258,0.812791356 14.0598,0.911792846 14.0570727,1.10435618 L14.0570727,11.5718599 C14.0598,11.7736706 14.2163455,11.9422996 14.4143455,11.9624262 L14.4143455,11.9624262 Z M13.3807091,1.09456483 C13.1827091,1.09456483 13.0190727,1.2577541 13.0163455,1.45793294 L12.8674364,8.88685246 L13.0163455,11.5838271 C13.0190727,11.7801982 13.1827091,11.9428435 13.3807091,11.9428435 C13.5787091,11.9428435 13.7423455,11.7801982 13.7445273,11.5816513 L13.7445273,11.5843711 L13.9070727,8.88685246 L13.7445273,1.45738897 C13.7423455,1.2577541 13.5787091,1.09456483 13.3807091,1.09456483 L13.3807091,1.09456483 Z M12.2516182,11.9602504 C12.4365273,11.9602504 12.5892545,11.8079404 12.5930727,11.6208167 L12.5930727,11.6229925 L12.7365273,8.88630849 L12.5930727,2.07370045 C12.5892545,1.88766468 12.4365273,1.73535469 12.2516182,1.73535469 C12.0661636,1.73535469 11.9134364,1.88766468 11.9101636,2.07370045 L11.7814364,8.8846766 C11.7814364,8.88957228 11.9101636,11.6224486 11.9101636,11.6224486 C11.9134364,11.8079404 12.0661636,11.9602504 12.2516182,11.9602504 L12.2516182,11.9602504 Z M11.5948909,8.88576453 L11.4361636,3.15999702 C11.4318,2.98375261 11.2916182,2.84449776 11.1176182,2.84449776 C10.9425273,2.84449776 10.8023455,2.98375261 10.7990727,3.16054098 L10.6567091,8.88576453 L10.7990727,11.6409434 C10.8023455,11.8155559 10.9425273,11.9542668 11.1176182,11.9542668 C11.2916182,11.9542668 11.4318,11.8155559 11.4361636,11.6382235 L11.4361636,11.6409434 L11.5948909,8.88576453 Z M9.9918,11.9499151 C10.1527091,11.9499151 10.2825273,11.8199076 10.2868909,11.6567183 L10.2868909,11.6578063 L10.4619818,8.88522057 L10.2868909,2.94349925 C10.2825273,2.77922206 10.1527091,2.65139046 9.9918,2.65139046 C9.8298,2.65139046 9.69943636,2.77976602 9.69616364,2.94349925 L9.54016364,8.88522057 L9.69616364,11.6572623 C9.69943636,11.8199076 9.8298,11.9499151 9.9918,11.9499151 L9.9918,11.9499151 Z M8.87470909,11.9520909 C9.02307273,11.9520909 9.14198182,11.8340507 9.14743636,11.6822846 L9.14689091,11.6839165 L9.3378,8.88522057 L9.14743636,2.78792548 C9.14198182,2.63615946 9.02307273,2.51866319 8.87470909,2.51866319 C8.72634545,2.51866319 8.60689091,2.63615946 8.60198182,2.78792548 L8.43289091,8.8846766 L8.60252727,11.6839165 C8.60689091,11.8340507 8.72634545,11.9520909 8.87470909,11.9520909 L8.87470909,11.9520909 Z M7.76634545,2.73951267 C7.63107273,2.73951267 7.52143636,2.84776155 7.51707273,2.98647243 C7.51707273,2.98701639 7.3338,8.8846766 7.3338,8.8846766 L7.51707273,11.7013234 C7.52143636,11.8378584 7.63107273,11.9466513 7.76634545,11.9466513 C7.90107273,11.9466513 8.01070909,11.8378584 8.01561818,11.6996915 L8.01561818,11.7018674 L8.22234545,8.8846766 L8.01561818,2.98647243 C8.01070909,2.84776155 7.90107273,2.73951267 7.76634545,2.73951267 L7.76634545,2.73951267 Z M6.66670909,11.9520909 C6.7878,11.9520909 6.88761818,11.8541773 6.89307273,11.7285216 L6.89307273,11.7306975 L7.11561818,8.88413264 L6.89307273,3.4401386 C6.88761818,3.31448286 6.7878,3.2165693 6.66670909,3.2165693 C6.54507273,3.2165693 6.4458,3.31448286 6.44034545,3.4401386 L6.24343636,8.88413264 L6.44034545,11.7296095 C6.4458,11.8541773 6.54507273,11.9520909 6.66670909,11.9520909 L6.66670909,11.9520909 Z M6.01761818,8.88358867 L5.77925455,4.45245604 C5.77325455,4.33985544 5.6838,4.25173323 5.5758,4.25173323 C5.46725455,4.25173323 5.37834545,4.33985544 5.37234545,4.45245604 L5.16234545,8.88358867 L5.37234545,11.7475604 C5.37834545,11.859073 5.46725455,11.9477392 5.5758,11.9477392 C5.6838,11.9477392 5.77325455,11.859073 5.77925455,11.7464724 L5.77925455,11.7475604 L6.01761818,8.88358867 Z M4.49361818,11.9232608 C4.58961818,11.9232608 4.66707273,11.8471058 4.67416364,11.7459285 L4.67416364,11.7464724 L4.9278,8.88250075 L4.67416364,6.1577839 C4.66707273,6.05769449 4.58961818,5.98099553 4.49361818,5.98099553 C4.39652727,5.98099553 4.31852727,6.05823845 4.31252727,6.1594158 L4.08889091,8.88250075 L4.31252727,11.7459285 C4.31852727,11.8471058 4.39652727,11.9232608 4.49361818,11.9232608 L4.49361818,11.9232608 Z M3.42016364,11.8764799 C3.50252727,11.8764799 3.56961818,11.8106602 3.57725455,11.721994 L3.84670909,8.88250075 L3.57725455,5.94618182 C3.56961818,5.85751565 3.50252727,5.79169598 3.42016364,5.79169598 C3.33670909,5.79169598 3.26852727,5.85751565 3.26252727,5.94672578 L3.02470909,8.88250075 L3.26252727,11.721994 C3.26852727,11.8106602 3.33670909,11.8764799 3.42016364,11.8764799 L3.42016364,11.8764799 Z M2.48961818,6.02451267 C2.48143636,5.94781371 2.42470909,5.89232936 2.35489091,5.89232936 C2.28398182,5.89232936 2.22725455,5.94781371 2.22016364,6.02451267 C2.22016364,6.02505663 1.96925455,8.88195678 1.96925455,8.88195678 L2.22016364,11.6349598 C2.22725455,11.7111148 2.28398182,11.7665991 2.35489091,11.7665991 C2.42470909,11.7665991 2.48143636,11.7111148 2.48961818,11.6355037 L2.77489091,8.88195678 L2.48961818,6.02451267 Z M0.304527273,10.4502057 C0.358527273,10.4502057 0.403254545,10.4072325 0.411981818,10.3457645 L0.644890909,8.88141282 L0.411981818,7.39203875 C0.403254545,7.33002683 0.358527273,7.28650969 0.304527273,7.28650969 C0.248345455,7.28650969 0.204163636,7.33057079 0.196527273,7.39258271 L0.000163636367,8.88141282 L0.196527273,10.3452206 C0.204163636,10.4066885 0.248345455,10.4502057 0.304527273,10.4502057 L0.304527273,10.4502057 Z M0.411981818,10.3452206 L0.411981818,10.3457645 L0.411981818,10.3452206 Z M1.29834545,11.3444829 C1.35507273,11.3444829 1.40143636,11.3004218 1.41016364,11.2367779 L1.71070909,8.88141282 L1.41070909,6.4727392 C1.40143636,6.40909538 1.35507273,6.36503428 1.29834545,6.36503428 C1.24161818,6.36503428 1.19470909,6.41072727 1.18652727,6.4727392 C1.18652727,6.47328316 0.921981818,8.88141282 0.921981818,8.88141282 L1.18652727,11.236234 C1.19470909,11.2993338 1.24161818,11.3444829 1.29834545,11.3444829 L1.29834545,11.3444829 Z" id="Fill-1" fill="#F26836" mask="url(#mask-2)"></path>
                    </g>
                </g>
            </g>
        </g>
    </g>
</svg>