<?xml version="1.0" encoding="UTF-8" standalone="no"?>
<svg width="15px" height="21px" viewBox="0 0 15 21" version="1.1" xmlns="http://www.w3.org/2000/svg" xmlns:xlink="http://www.w3.org/1999/xlink">
    <!-- Generator: Sketch 3.6.1 (26313) - http://www.bohemiancoding.com/sketch -->
    <title>Tumblr</title>
    <desc>Created with Sketch.</desc>
    <defs>
        <path id="path-1" d="M0,0.291853463 L14.3097959,0.291853463 L14.3097959,19.9453552 L0,19.9453552"></path>
    </defs>
    <g id="Page-1" stroke="none" stroke-width="1" fill="none" fill-rule="evenodd">
        <g id="Production-Detail-HIghlights-,-Logo" transform="translate(-520.000000, -873.000000)">
            <g id="Description" transform="translate(0.000000, 584.000000)">
                <g id="Social-Media-Icons" transform="translate(403.000000, 288.357923)">
                    <g id="Tumblr" transform="translate(117.000000, 0.997268)">
                        <mask id="mask-2" fill="white">
                            <use xlink:href="#path-1"></use>
                        </mask>
                        <g id="Clip-2"></g>
                        <path d="M11.949551,15.0369254 L8.14546939,15.0369254 C5.43893878,15.0369254 5.00710204,13.8426464 5.00710204,12.7354756 C5.00710204,12.2099766 5.04016327,11.3433713 5.07240816,10.2817899 L11.4291429,10.2817899 C12.3797551,10.2817899 14.1948571,9.89305899 14.1948571,8.15781309 C14.1948571,6.42378834 13.356898,5.28690309 12.234449,5.28690309 L5.15159184,5.28690309 C5.1442449,2.78477863 4.98097959,0.291609234 2.53036735,0.291609234 C1.5164898,0.291609234 0.69444898,0.70679826 0.347510204,1.73785101 C-0.107591837,3.09250697 0.0128163265,4.67877328 0.0189387755,6.08919483 C0.0201632653,6.35703245 0.0213877551,6.62649827 0.0222040816,6.89514999 C0.0254693878,7.8191491 0.044244898,8.74843983 0.0487346939,9.67691647 C0.0511836735,10.6762195 0.0524081633,11.6755225 0.0524081633,12.6740114 C0.0524081633,18.2692941 5.15159184,19.8547463 6.12955102,19.8547463 C7.10832653,19.8547463 10.9393469,19.945518 11.6311837,19.945518 C12.3234286,19.945518 14.309551,19.7623464 14.309551,17.7588558 C14.309551,15.7557723 12.9001633,15.0369254 11.949551,15.0369254" id="Fill-1" fill="#F26836" mask="url(#mask-2)"></path>
                    </g>
                </g>
            </g>
        </g>
    </g>
</svg>