<?xml version="1.0" encoding="UTF-8" standalone="no"?>
<svg width="20px" height="17px" viewBox="0 0 20 17" version="1.1" xmlns="http://www.w3.org/2000/svg" xmlns:xlink="http://www.w3.org/1999/xlink">
    <!-- Generator: Sketch 3.6.1 (26313) - http://www.bohemiancoding.com/sketch -->
    <title>Twitter</title>
    <desc>Created with Sketch.</desc>
    <defs></defs>
    <g id="Page-1" stroke="none" stroke-width="1" fill="none" fill-rule="evenodd">
        <g id="Production-Detail-HIghlights-,-Logo" transform="translate(-403.000000, -874.000000)" fill="#F26836">
            <g id="Description" transform="translate(0.000000, 584.000000)">
                <g id="Social-Media-Icons" transform="translate(403.000000, 288.357923)">
                    <g id="Twitter" transform="translate(0.000000, 1.994536)">
                        <path d="M17.4495952,2.90966831 C18.2875818,2.41103443 18.9308279,1.62119836 19.2339807,0.678979781 C18.4497987,1.14131311 17.5816976,1.47679399 16.6569812,1.65789781 C15.9169672,0.874444262 14.862156,0.384586339 13.6949174,0.384586339 C11.4539959,0.384586339 9.63668524,2.19003989 9.63668524,4.41634044 C9.63668524,4.73227486 9.67282266,5.03983224 9.74188528,5.3350235 C6.3690595,5.16708361 3.37848731,3.56228033 1.37727735,1.12256448 C1.02794896,1.71813279 0.82758705,2.41023661 0.82758705,3.14941148 C0.82758705,4.54837869 1.54431253,5.78219836 2.6328519,6.50541694 C1.96792339,6.48427486 1.34194298,6.30317104 0.795063372,6.00079945 C0.794661846,6.01755355 0.794661846,6.03470656 0.794661846,6.05185956 C0.794661846,8.00490874 2.19358149,9.63444426 4.05024178,10.005029 C3.70974698,10.0971765 3.35118348,10.146641 2.9809757,10.146641 C2.71918018,10.146641 2.46501366,10.1215098 2.21727158,10.0740399 C2.73403667,11.6756519 4.23253498,12.8416574 6.00808684,12.8739689 C4.61920537,13.955406 2.86935123,14.6000399 0.968121457,14.6000399 C0.640475524,14.6000399 0.317647914,14.5808923 4.0152685e-05,14.543794 C1.79606988,15.6878596 3.92938219,16.3552311 6.22089608,16.3552311 C13.6856823,16.3552311 17.767203,10.2116628 17.767203,4.88385956 C17.767203,4.70913825 17.7635893,4.53481585 17.7559603,4.36208907 C18.5485743,3.79404536 19.2367914,3.0835918 19.7804588,2.2750071 C19.0532936,2.59612732 18.2707177,2.81273388 17.4495952,2.90966831 Z" id="Fill-1"></path>
                    </g>
                </g>
            </g>
        </g>
    </g>
</svg>