<?xml version="1.0" encoding="UTF-8" standalone="no"?>
<svg width="20px" height="20px" viewBox="0 0 20 20" version="1.1" xmlns="http://www.w3.org/2000/svg" xmlns:xlink="http://www.w3.org/1999/xlink">
    <!-- Generator: Sketch 3.6.1 (26313) - http://www.bohemiancoding.com/sketch -->
    <title>Youtube</title>
    <desc>Created with Sketch.</desc>
    <defs>
        <path id="path-1" d="M0,0.0103715847 L19.6188,0.0103715847 L19.6188,19.147541 L0,19.147541 L0,0.0103715847 Z"></path>
    </defs>
    <g id="Page-1" stroke="none" stroke-width="1" fill="none" fill-rule="evenodd">
        <g id="Production-Detail-HIghlights-,-Logo" transform="translate(-481.000000, -873.000000)">
            <g id="Description" transform="translate(0.000000, 584.000000)">
                <g id="Social-Media-Icons" transform="translate(403.000000, 288.357923)">
                    <g id="Youtube" transform="translate(78.000000, 0.997268)">
                        <g id="Group-3">
                            <mask id="mask-2" fill="white">
                                <use xlink:href="#path-1"></use>
                            </mask>
                            <g id="Clip-2"></g>
                            <path d="M16.51292,14.7414525 L14.61452,14.7414525 L14.61452,15.6740973 C14.61452,15.9349825 14.64612,16.1156874 14.71132,16.2170098 C14.77732,16.3183322 14.88932,16.3673978 15.04772,16.3673978 C15.21292,16.3673978 15.32692,16.3247148 15.39292,16.2393486 C15.45732,16.1531847 15.49172,15.9656984 15.49172,15.6740973 L15.49172,15.4487148 L16.51292,15.4487148 L16.51292,15.7028186 C16.51292,16.2106273 16.38932,16.5927803 16.13812,16.8512721 C15.89132,17.1061738 15.51972,17.233824 15.02492,17.233824 C14.58012,17.233824 14.22932,17.0981956 13.97452,16.8257421 C13.72012,16.555682 13.59092,16.1803104 13.59092,15.7028186 L13.59092,13.4785126 C13.59092,13.0504852 13.73212,12.6982503 14.01332,12.4281902 C14.29412,12.1581301 14.65452,12.0236984 15.09972,12.0236984 C15.55372,12.0236984 15.90332,12.1485563 16.14732,12.398671 C16.39092,12.6495836 16.51292,13.0089989 16.51292,13.4785126 L16.51292,14.7414525 Z M13.07092,16.0757967 C13.07092,16.4256383 12.99332,16.6941027 12.83732,16.8823869 C12.68332,17.0694743 12.45652,17.1616219 12.16332,17.1616219 C11.96812,17.1616219 11.79492,17.1269169 11.64372,17.0543158 C11.49212,16.9829115 11.34932,16.8716164 11.21972,16.718835 L11.21972,17.0981956 L10.21612,17.0981956 L10.21612,10.3861847 L11.21972,10.3861847 L11.21972,12.5478623 C11.35372,12.3978732 11.49652,12.2821902 11.64452,12.2044033 C11.79652,12.1246219 11.94892,12.0863268 12.10332,12.0863268 C12.41732,12.0863268 12.65652,12.1908404 12.82212,12.4018623 C12.98852,12.6132831 13.07092,12.9220372 13.07092,13.3277257 L13.07092,16.0757967 Z M9.47012,17.0981956 L8.47772,17.0981956 L8.47772,16.555682 C8.29332,16.7563322 8.10372,16.9095126 7.90452,17.0128295 C7.70652,17.1205344 7.51492,17.1711956 7.32812,17.1711956 C7.09812,17.1711956 6.92692,17.0981956 6.80972,16.9498022 C6.69452,16.8018077 6.63572,16.5824087 6.63572,16.2864197 L6.63572,12.1461628 L7.62772,12.1461628 L7.62772,15.9453541 C7.62772,16.0622339 7.64932,16.1468022 7.68892,16.1986601 C7.73212,16.2529115 7.80052,16.2776437 7.89332,16.2776437 C7.96492,16.2776437 8.05812,16.2433377 8.17012,16.1739279 C8.28252,16.1041191 8.38452,16.0155617 8.47772,15.9074579 L8.47772,12.1461628 L9.47012,12.1461628 L9.47012,17.0981956 Z M6.19972,11.3623104 L5.04212,11.3623104 L5.04212,17.0981956 L3.92372,17.0981956 L3.92372,11.3623104 L2.76692,11.3623104 L2.76692,10.3861847 L6.19972,10.3861847 L6.19972,11.3623104 Z M16.03532,9.12563825 L3.58372,9.12563825 C1.60452,9.12563825 0.000119999997,10.7272503 0.000119999997,12.7006437 L0.000119999997,15.5731738 C0.000119999997,17.5465672 1.60452,19.1473814 3.58372,19.1473814 L16.03532,19.1473814 C18.01412,19.1473814 19.61892,17.5465672 19.61892,15.5731738 L19.61892,12.7006437 C19.61892,10.7272503 18.01412,9.12563825 16.03532,9.12563825 L16.03532,9.12563825 Z" id="Fill-1" fill="#F26836" mask="url(#mask-2)"></path>
                        </g>
                        <path d="M15.05704,12.8896858 C14.89864,12.8896858 14.78584,12.9343634 14.71704,13.0265109 C14.64744,13.1134727 14.61464,13.2626639 14.61464,13.4704945 L14.61464,13.970724 L15.49184,13.970724 L15.49184,13.4704945 C15.49184,13.2626639 15.45624,13.1134727 15.38704,13.0265109 C15.31984,12.9343634 15.20824,12.8896858 15.05704,12.8896858" id="Fill-4" fill="#F26836"></path>
                        <path d="M11.6348,12.8729716 C11.564,12.8729716 11.4932,12.8881301 11.4244,12.9208404 C11.3552,12.9523541 11.2872,13.004212 11.2196,13.0720262 L11.2196,16.1571738 C11.2996,16.2369552 11.3784,16.2983869 11.4548,16.3334907 C11.5316,16.3673978 11.61,16.3865454 11.6944,16.3865454 C11.8164,16.3865454 11.9056,16.3514415 11.9624,16.2804361 C12.0188,16.2106273 12.048,16.0981355 12.048,15.9397694 L12.048,13.381977 C12.048,13.2140372 12.014,13.0879825 11.944,13.0014197 C11.8716,12.9160536 11.7684,12.8729716 11.6348,12.8729716" id="Fill-6" fill="#F26836"></path>
                        <path d="M5.21408,7.40551093 L6.47208,7.40551093 L6.47208,4.3379153 L7.93608,0.0105710383 L6.65768,0.0105710383 L5.87928,2.96647268 L5.80008,2.96647268 L4.98288,0.0105710383 L3.71608,0.0105710383 L5.21408,4.47593716 L5.21408,7.40551093 Z" id="Fill-8" fill="#F26836"></path>
                        <path d="M9.17696,3.15623279 C9.17696,3.03775738 9.21976,2.94201967 9.30336,2.86702514 C9.39016,2.79362623 9.50056,2.75772459 9.63656,2.75772459 C9.78496,2.75772459 9.90376,2.79362623 9.99536,2.86702514 C10.08616,2.94201967 10.13176,3.03775738 10.13176,3.15623279 L10.13176,6.12848962 C10.13176,6.27409071 10.08656,6.38937486 9.99736,6.47314536 C9.90816,6.55691585 9.78776,6.59800328 9.63656,6.59800328 C9.48896,6.59800328 9.37496,6.55851148 9.29576,6.47474098 C9.21696,6.39256612 9.17696,6.27807978 9.17696,6.12848962 L9.17696,3.15623279 Z M9.64016,7.54301421 C10.14816,7.54301421 10.54656,7.41057705 10.83696,7.14490492 C11.12536,6.87763716 11.27016,6.51383388 11.27016,6.04671366 L11.27016,3.22883388 C11.27016,2.81397049 11.12216,2.4717082 10.82856,2.2080306 C10.53256,1.94515082 10.15336,1.81271366 9.69056,1.81271366 C9.18336,1.81271366 8.77816,1.93797049 8.47776,2.18808525 C8.17736,2.43859891 8.02696,2.77368087 8.02696,3.19771913 L8.02696,6.02517268 C8.02696,6.48910164 8.17376,6.85649508 8.46656,7.13134208 C8.75976,7.40539126 9.15176,7.54301421 9.64016,7.54301421 L9.64016,7.54301421 Z" id="Fill-10" fill="#F26836"></path>
                        <path d="M12.95668,7.48497322 C13.16628,7.48497322 13.38188,7.42553607 13.60428,7.31065082 C13.82868,7.19416995 14.04348,7.02383661 14.24748,6.80164536 L14.24748,7.40559071 L15.36508,7.40559071 L15.36508,1.95053607 L14.24748,1.95053607 L14.24748,6.09159071 C14.14388,6.21006612 14.02868,6.30739945 13.90388,6.38478743 C13.77748,6.4613776 13.67348,6.49927377 13.59148,6.49927377 C13.48668,6.49927377 13.40988,6.47095137 13.36428,6.41191311 C13.31788,6.35447049 13.29228,6.26152514 13.29228,6.13307705 L13.29228,1.95053607 L12.17668,1.95053607 L12.17668,6.50964536 C12.17668,6.83515355 12.24228,7.07768907 12.37228,7.23884754 C12.50388,7.40239945 12.69708,7.48497322 12.95668,7.48497322" id="Fill-12" fill="#F26836"></path>
                    </g>
                </g>
            </g>
        </g>
    </g>
</svg>