<?xml version="1.0" encoding="UTF-8" standalone="no"?>
<svg width="75px" height="80px" viewBox="0 0 75 80" version="1.1" xmlns="http://www.w3.org/2000/svg" xmlns:xlink="http://www.w3.org/1999/xlink" xmlns:sketch="http://www.bohemiancoding.com/sketch/ns">
    <!-- Generator: Sketch 3.4.4 (17249) - http://www.bohemiancoding.com/sketch -->
    <title>Air Logo</title>
    <desc>Created with Sketch.</desc>
    <defs>
        <path id="path-1" d="M0,0.00852272727 L74.9173295,0.00852272727 L74.9173295,79.2613636 L0,79.2613636"></path>
        <path id="path-3" d="M0,0.00852272727 L74.9173295,0.00852272727 L74.9173295,79.2613636 L0,79.2613636"></path>
    </defs>
    <g id="Page-1" stroke="none" stroke-width="1" fill="none" fill-rule="evenodd" sketch:type="MSPage">
        <g id="Final-Design" sketch:type="MSArtboardGroup" transform="translate(-883.000000, -22.000000)">
            <g id="Headers" sketch:type="MSLayerGroup">
                <g id="Header-LL-AColor">
                    <g id="Air-Logo" transform="translate(883.000000, 22.000000)">
                        <path d="M25.501108,20.0318182 C24.3880398,20.0318182 23.4820739,20.9369318 23.4820739,22.0482955 C23.4820739,23.1613636 24.3880398,24.0664773 25.501108,24.0664773 C26.6133239,24.0664773 27.516733,23.1613636 27.516733,22.0482955 C27.516733,20.9369318 26.6133239,20.0318182 25.501108,20.0318182" id="Fill-1" fill="#F26837" sketch:type="MSShapeGroup"></path>
                        <path d="M33.4726705,20.0318182 C32.3604545,20.0318182 31.4553409,20.9369318 31.4553409,22.0482955 C31.4553409,23.1613636 32.3604545,24.0664773 33.4726705,24.0664773 C34.5848864,24.0664773 35.4891477,23.1613636 35.4891477,22.0482955 C35.4891477,20.9369318 34.5848864,20.0318182 33.4726705,20.0318182" id="Fill-3" fill="#F26837" sketch:type="MSShapeGroup"></path>
                        <path d="M41.4459375,20.0318182 C40.3328693,20.0318182 39.4269034,20.9369318 39.4269034,22.0482955 C39.4269034,23.1613636 40.3328693,24.0664773 41.4459375,24.0664773 C42.5581534,24.0664773 43.463267,23.1613636 43.463267,22.0482955 C43.463267,20.9369318 42.5581534,20.0318182 41.4459375,20.0318182" id="Fill-5" fill="#F26837" sketch:type="MSShapeGroup"></path>
                        <path d="M49.4175852,20.0318182 C48.3053693,20.0318182 47.401108,20.9369318 47.401108,22.0482955 C47.401108,23.1613636 48.3053693,24.0664773 49.4175852,24.0664773 C50.5306534,24.0664773 51.435767,23.1613636 51.435767,22.0482955 C51.435767,20.9369318 50.5306534,20.0318182 49.4175852,20.0318182" id="Fill-7" fill="#F26837" sketch:type="MSShapeGroup"></path>
                        <path d="M25.501108,55.997983 C24.3880398,55.997983 23.4820739,56.9030966 23.4820739,58.0153125 C23.4820739,59.1266761 24.3880398,60.0317898 25.501108,60.0317898 C26.6133239,60.0317898 27.516733,59.1266761 27.516733,58.0153125 C27.516733,56.9030966 26.6133239,55.997983 25.501108,55.997983" id="Fill-9" fill="#F26837" sketch:type="MSShapeGroup"></path>
                        <path d="M33.4726705,55.997983 C32.3604545,55.997983 31.4553409,56.9030966 31.4553409,58.0153125 C31.4553409,59.1266761 32.3604545,60.0317898 33.4726705,60.0317898 C34.5848864,60.0317898 35.4891477,59.1266761 35.4891477,58.0153125 C35.4891477,56.9030966 34.5848864,55.997983 33.4726705,55.997983" id="Fill-11" fill="#F26837" sketch:type="MSShapeGroup"></path>
                        <path d="M41.4459375,55.997983 C40.3328693,55.997983 39.4269034,56.9030966 39.4269034,58.0153125 C39.4269034,59.1266761 40.3328693,60.0317898 41.4459375,60.0317898 C42.5581534,60.0317898 43.463267,59.1266761 43.463267,58.0153125 C43.463267,56.9030966 42.5581534,55.997983 41.4459375,55.997983" id="Fill-13" fill="#F26837" sketch:type="MSShapeGroup"></path>
                        <path d="M49.4175852,55.997983 C48.3053693,55.997983 47.401108,56.9030966 47.401108,58.0153125 C47.401108,59.1266761 48.3053693,60.0317898 49.4175852,60.0317898 C50.5306534,60.0317898 51.435767,59.1266761 51.435767,58.0153125 C51.435767,56.9030966 50.5306534,55.997983 49.4175852,55.997983" id="Fill-15" fill="#F26837" sketch:type="MSShapeGroup"></path>
                        <path d="M1.58147727,22.8397159 C2.01698864,22.8397159 2.37153409,22.4851705 2.37153409,22.0488068 C2.37153409,21.6132955 2.01698864,21.25875 1.58147727,21.25875 C1.14511364,21.25875 0.790568182,21.6132955 0.790568182,22.0488068 C0.790568182,22.4851705 1.14511364,22.8397159 1.58147727,22.8397159" id="Fill-17" fill="#F26837" sketch:type="MSShapeGroup"></path>
                        <path d="M9.5540625,23.6301136 C10.4250852,23.6301136 11.1350284,22.9210227 11.1350284,22.0491477 C11.1350284,21.1772727 10.4250852,20.4681818 9.5540625,20.4681818 C8.6821875,20.4681818 7.97309659,21.1772727 7.97309659,22.0491477 C7.97309659,22.9210227 8.6821875,23.6301136 9.5540625,23.6301136" id="Fill-19" fill="#F26837" sketch:type="MSShapeGroup"></path>
                        <path d="M17.5274148,24.0665625 C18.6396307,24.0665625 19.5447443,23.1614489 19.5447443,22.0483807 C19.5447443,20.937017 18.6396307,20.0319034 17.5274148,20.0319034 C16.4143466,20.0319034 15.5083807,20.937017 15.5083807,22.0483807 C15.5083807,23.1614489 16.4143466,24.0665625 17.5274148,24.0665625" id="Fill-21" fill="#F26837" sketch:type="MSShapeGroup"></path>
                        <path d="M5.56789773,29.6251705 C6.43892045,29.6251705 7.14715909,28.9152273 7.14715909,28.0433523 C7.14715909,27.1714773 6.43892045,26.4615341 5.56789773,26.4615341 C4.69602273,26.4615341 3.98607955,27.1714773 3.98607955,28.0433523 C3.98607955,28.9152273 4.69602273,29.6251705 5.56789773,29.6251705" id="Fill-23" fill="#F26837" sketch:type="MSShapeGroup"></path>
                        <path d="M13.5409091,30.0619602 C14.6539773,30.0619602 15.5590909,29.1559943 15.5590909,28.0429261 C15.5590909,26.9307102 14.6539773,26.0255966 13.5409091,26.0255966 C12.4278409,26.0255966 11.5227273,26.9307102 11.5227273,28.0429261 C11.5227273,29.1559943 12.4278409,30.0619602 13.5409091,30.0619602" id="Fill-25" fill="#F26837" sketch:type="MSShapeGroup"></path>
                        <path d="M1.58215909,32.4578693 C0.709431818,32.4578693 0.000340909091,33.166108 0.000340909091,34.037983 C0.000340909091,34.9107102 0.709431818,35.6198011 1.58215909,35.6198011 C2.45318182,35.6198011 3.16227273,34.9107102 3.16227273,34.037983 C3.16227273,33.166108 2.45318182,32.4578693 1.58215909,32.4578693" id="Fill-27" fill="#F26837" sketch:type="MSShapeGroup"></path>
                        <path d="M9.5540625,36.0563352 C10.6662784,36.0563352 11.5705398,35.1503693 11.5705398,34.0373011 C11.5705398,32.9259375 10.6662784,32.0216761 9.5540625,32.0216761 C8.44184659,32.0216761 7.53673295,32.9259375 7.53673295,34.0373011 C7.53673295,35.1503693 8.44184659,36.0563352 9.5540625,36.0563352" id="Fill-29" fill="#F26837" sketch:type="MSShapeGroup"></path>
                        <path d="M5.56823864,42.0496875 C6.68045455,42.0496875 7.58386364,41.1437216 7.58386364,40.0306534 C7.58386364,38.9184375 6.68045455,38.0141761 5.56823864,38.0141761 C4.45517045,38.0141761 3.55005682,38.9184375 3.55005682,40.0306534 C3.55005682,41.1437216 4.45517045,42.0496875 5.56823864,42.0496875" id="Fill-31" fill="#F26837" sketch:type="MSShapeGroup"></path>
                        <path d="M1.58215909,44.4465341 C0.709431818,44.4465341 0.000340909091,45.1547727 0.000340909091,46.0257955 C0.000340909091,46.8976705 0.709431818,47.6076136 1.58215909,47.6076136 C2.45318182,47.6076136 3.16227273,46.8976705 3.16227273,46.0257955 C3.16227273,45.1547727 2.45318182,44.4465341 1.58215909,44.4465341" id="Fill-33" fill="#F26837" sketch:type="MSShapeGroup"></path>
                        <path d="M9.5540625,48.0440625 C10.6662784,48.0440625 11.5705398,47.1380966 11.5705398,46.0250284 C11.5705398,44.914517 10.6662784,44.0102557 9.5540625,44.0102557 C8.44184659,44.0102557 7.53673295,44.914517 7.53673295,46.0250284 C7.53673295,47.1380966 8.44184659,48.0440625 9.5540625,48.0440625" id="Fill-35" fill="#F26837" sketch:type="MSShapeGroup"></path>
                        <path d="M5.56789773,50.4398864 C4.69602273,50.4398864 3.98607955,51.1489773 3.98607955,52.0208523 C3.98607955,52.8927273 4.69602273,53.6018182 5.56789773,53.6018182 C6.43892045,53.6018182 7.14715909,52.8927273 7.14715909,52.0208523 C7.14715909,51.1489773 6.43892045,50.4398864 5.56789773,50.4398864" id="Fill-37" fill="#F26837" sketch:type="MSShapeGroup"></path>
                        <path d="M13.5409091,54.0385227 C14.6539773,54.0385227 15.5590909,53.1334091 15.5590909,52.0203409 C15.5590909,50.9089773 14.6539773,50.0030114 13.5409091,50.0030114 C12.4278409,50.0030114 11.5227273,50.9089773 11.5227273,52.0203409 C11.5227273,53.1334091 12.4278409,54.0385227 13.5409091,54.0385227" id="Fill-39" fill="#F26837" sketch:type="MSShapeGroup"></path>
                        <path d="M1.58139205,57.3069886 C1.19105114,57.3069886 0.873153409,57.6248864 0.873153409,58.0152273 C0.873153409,58.4055682 1.19105114,58.7226136 1.58139205,58.7226136 C1.97173295,58.7226136 2.28877841,58.4055682 2.28877841,58.0152273 C2.28877841,57.6248864 1.97173295,57.3069886 1.58139205,57.3069886" id="Fill-41" fill="#F26837" sketch:type="MSShapeGroup"></path>
                        <path d="M9.5540625,56.4343466 C8.6821875,56.4343466 7.97309659,57.1434375 7.97309659,58.0153125 C7.97309659,58.8871875 8.6821875,59.5954261 9.5540625,59.5954261 C10.4250852,59.5954261 11.1350284,58.8871875 11.1350284,58.0153125 C11.1350284,57.1434375 10.4250852,56.4343466 9.5540625,56.4343466" id="Fill-43" fill="#F26837" sketch:type="MSShapeGroup"></path>
                        <path d="M17.5274148,60.031875 C18.6396307,60.031875 19.5447443,59.1267614 19.5447443,58.0153977 C19.5447443,56.9031818 18.6396307,55.9980682 17.5274148,55.9980682 C16.4143466,55.9980682 15.5083807,56.9031818 15.5083807,58.0153977 C15.5083807,59.1267614 16.4143466,60.031875 17.5274148,60.031875" id="Fill-45" fill="#F26837" sketch:type="MSShapeGroup"></path>
                        <path d="M5.56772727,63.2185227 C5.13136364,63.2185227 4.77681818,63.5730682 4.77681818,64.0085795 C4.77681818,64.4440909 5.13136364,64.7994886 5.56772727,64.7994886 C6.00323864,64.7994886 6.35778409,64.4440909 6.35778409,64.0085795 C6.35778409,63.5730682 6.00323864,63.2185227 5.56772727,63.2185227" id="Fill-47" fill="#F26837" sketch:type="MSShapeGroup"></path>
                        <path d="M13.5409091,62.4276989 C12.6690341,62.4276989 11.9590909,63.1367898 11.9590909,64.0086648 C11.9590909,64.8805398 12.6690341,65.5896307 13.5409091,65.5896307 C14.4127841,65.5896307 15.121875,64.8805398 15.121875,64.0086648 C15.121875,63.1367898 14.4127841,62.4276989 13.5409091,62.4276989" id="Fill-49" fill="#F26837" sketch:type="MSShapeGroup"></path>
                        <path d="M21.5131534,61.9913352 C20.4000852,61.9913352 19.4941193,62.8964489 19.4941193,64.0078125 C19.4941193,65.1208807 20.4000852,66.0268466 21.5131534,66.0268466 C22.6253693,66.0268466 23.530483,65.1208807 23.530483,64.0078125 C23.530483,62.8964489 22.6253693,61.9913352 21.5131534,61.9913352" id="Fill-51" fill="#F26837" sketch:type="MSShapeGroup"></path>
                        <path d="M25.5006818,11.6420455 C26.3717045,11.6420455 27.0799432,10.9329545 27.0799432,10.0610795 C27.0799432,9.18920455 26.3717045,8.48011364 25.5006818,8.48011364 C24.6279545,8.48011364 23.9188636,9.18920455 23.9188636,10.0610795 C23.9188636,10.9329545 24.6279545,11.6420455 25.5006818,11.6420455" id="Fill-53" fill="#F26837" sketch:type="MSShapeGroup"></path>
                        <path d="M33.4726705,11.6420455 C34.3436932,11.6420455 35.0536364,10.9329545 35.0536364,10.0610795 C35.0536364,9.18920455 34.3436932,8.48011364 33.4726705,8.48011364 C32.6007955,8.48011364 31.8917045,9.18920455 31.8917045,10.0610795 C31.8917045,10.9329545 32.6007955,11.6420455 33.4726705,11.6420455" id="Fill-55" fill="#F26837" sketch:type="MSShapeGroup"></path>
                        <path d="M41.4459375,11.6420455 C42.3169602,11.6420455 43.0269034,10.9329545 43.0269034,10.0610795 C43.0269034,9.18920455 42.3169602,8.48011364 41.4459375,8.48011364 C40.5732102,8.48011364 39.8641193,9.18920455 39.8641193,10.0610795 C39.8641193,10.9329545 40.5732102,11.6420455 41.4459375,11.6420455" id="Fill-57" fill="#F26837" sketch:type="MSShapeGroup"></path>
                        <path d="M49.4179261,11.6420455 C50.2898011,11.6420455 50.998892,10.9329545 50.998892,10.0610795 C50.998892,9.18920455 50.2898011,8.48011364 49.4179261,8.48011364 C48.5469034,8.48011364 47.8369602,9.18920455 47.8369602,10.0610795 C47.8369602,10.9329545 48.5469034,11.6420455 49.4179261,11.6420455" id="Fill-59" fill="#F26837" sketch:type="MSShapeGroup"></path>
                        <path d="M9.5540625,10.851733 C9.98957386,10.851733 10.3441193,10.4971875 10.3441193,10.0616761 C10.3441193,9.6253125 9.98957386,9.27076705 9.5540625,9.27076705 C9.11855114,9.27076705 8.76400568,9.6253125 8.76400568,10.0616761 C8.76400568,10.4971875 9.11855114,10.851733 9.5540625,10.851733" id="Fill-61" fill="#F26837" sketch:type="MSShapeGroup"></path>
                        <path d="M17.5274148,11.6420455 C18.3984375,11.6420455 19.1083807,10.9329545 19.1083807,10.0610795 C19.1083807,9.18920455 18.3984375,8.48011364 17.5274148,8.48011364 C16.6546875,8.48011364 15.9455966,9.18920455 15.9455966,10.0610795 C15.9455966,10.9329545 16.6546875,11.6420455 17.5274148,11.6420455" id="Fill-63" fill="#F26837" sketch:type="MSShapeGroup"></path>
                        <path d="M5.56772727,16.845767 C6.00323864,16.845767 6.35778409,16.4912216 6.35778409,16.054858 C6.35778409,15.6193466 6.00323864,15.2648011 5.56772727,15.2648011 C5.13136364,15.2648011 4.77681818,15.6193466 4.77681818,16.054858 C4.77681818,16.4912216 5.13136364,16.845767 5.56772727,16.845767" id="Fill-65" fill="#F26837" sketch:type="MSShapeGroup"></path>
                        <path d="M13.5409091,17.6365057 C14.4127841,17.6365057 15.121875,16.9274148 15.121875,16.0555398 C15.121875,15.1828125 14.4127841,14.4737216 13.5409091,14.4737216 C12.6690341,14.4737216 11.9590909,15.1828125 11.9590909,16.0555398 C11.9590909,16.9274148 12.6690341,17.6365057 13.5409091,17.6365057" id="Fill-67" fill="#F26837" sketch:type="MSShapeGroup"></path>
                        <path d="M21.5131534,18.0730398 C22.6253693,18.0730398 23.530483,17.1679261 23.530483,16.054858 C23.530483,14.942642 22.6253693,14.0375284 21.5131534,14.0375284 C20.4000852,14.0375284 19.4941193,14.942642 19.4941193,16.054858 C19.4941193,17.1679261 20.4000852,18.0730398 21.5131534,18.0730398" id="Fill-69" fill="#F26837" sketch:type="MSShapeGroup"></path>
                        <path d="M57.3911932,11.6420455 C58.2622159,11.6420455 58.9721591,10.9329545 58.9721591,10.0610795 C58.9721591,9.18920455 58.2622159,8.48011364 57.3911932,8.48011364 C56.5193182,8.48011364 55.8102273,9.18920455 55.8102273,10.0610795 C55.8102273,10.9329545 56.5193182,11.6420455 57.3911932,11.6420455" id="Fill-71" fill="#F26837" sketch:type="MSShapeGroup"></path>
                        <path d="M65.3638636,10.8514773 C65.799375,10.8514773 66.1539205,10.4969318 66.1539205,10.0614205 C66.1539205,9.62590909 65.799375,9.27051136 65.3638636,9.27051136 C64.9275,9.27051136 64.5729545,9.62590909 64.5729545,10.0614205 C64.5729545,10.4969318 64.9275,10.8514773 65.3638636,10.8514773" id="Fill-73" fill="#F26837" sketch:type="MSShapeGroup"></path>
                        <path d="M25.5,5.32474432 C25.9355114,5.32474432 26.2900568,4.97019886 26.2900568,4.5346875 C26.2900568,4.09832386 25.9355114,3.74377841 25.5,3.74377841 C25.0636364,3.74377841 24.7090909,4.09832386 24.7090909,4.5346875 C24.7090909,4.97019886 25.0636364,5.32474432 25.5,5.32474432" id="Fill-75" fill="#F26837" sketch:type="MSShapeGroup"></path>
                        <path d="M33.4726705,5.32474432 C33.9081818,5.32474432 34.2627273,4.97019886 34.2627273,4.5346875 C34.2627273,4.09832386 33.9081818,3.74377841 33.4726705,3.74377841 C33.0363068,3.74377841 32.6817614,4.09832386 32.6817614,4.5346875 C32.6817614,4.97019886 33.0363068,5.32474432 33.4726705,5.32474432" id="Fill-77" fill="#F26837" sketch:type="MSShapeGroup"></path>
                        <path d="M41.4455966,5.32474432 C41.881108,5.32474432 42.2356534,4.97019886 42.2356534,4.5346875 C42.2356534,4.09832386 41.881108,3.74377841 41.4455966,3.74377841 C41.009233,3.74377841 40.6546875,4.09832386 40.6546875,4.5346875 C40.6546875,4.97019886 41.009233,5.32474432 41.4455966,5.32474432" id="Fill-79" fill="#F26837" sketch:type="MSShapeGroup"></path>
                        <path d="M49.4179261,5.32474432 C49.8542898,5.32474432 50.2088352,4.97019886 50.2088352,4.5346875 C50.2088352,4.09832386 49.8542898,3.74377841 49.4179261,3.74377841 C48.9824148,3.74377841 48.6278693,4.09832386 48.6278693,4.5346875 C48.6278693,4.97019886 48.9824148,5.32474432 49.4179261,5.32474432" id="Fill-81" fill="#F26837" sketch:type="MSShapeGroup"></path>
                        <path d="M17.5269886,5.32474432 C17.9625,5.32474432 18.3170455,4.97019886 18.3170455,4.5346875 C18.3170455,4.09832386 17.9625,3.74377841 17.5269886,3.74377841 C17.090625,3.74377841 16.7360795,4.09832386 16.7360795,4.5346875 C16.7360795,4.97019886 17.090625,5.32474432 17.5269886,5.32474432" id="Fill-83" fill="#F26837" sketch:type="MSShapeGroup"></path>
                        <path d="M57.3911932,5.32474432 C57.8267045,5.32474432 58.18125,4.97019886 58.18125,4.5346875 C58.18125,4.09832386 57.8267045,3.74377841 57.3911932,3.74377841 C56.9548295,3.74377841 56.6002841,4.09832386 56.6002841,4.5346875 C56.6002841,4.97019886 56.9548295,5.32474432 57.3911932,5.32474432" id="Fill-85" fill="#F26837" sketch:type="MSShapeGroup"></path>
                        <path d="M25.5,1.19463068 C25.8264205,1.19463068 26.0923295,0.928721591 26.0923295,0.602301136 C26.0923295,0.275028409 25.8264205,0.00911931818 25.5,0.00911931818 C25.1727273,0.00911931818 24.9068182,0.275028409 24.9068182,0.602301136 C24.9068182,0.928721591 25.1727273,1.19463068 25.5,1.19463068" id="Fill-87" fill="#F26837" sketch:type="MSShapeGroup"></path>
                        <path d="M33.4726705,1.19463068 C33.7990909,1.19463068 34.065,0.928721591 34.065,0.602301136 C34.065,0.275028409 33.7990909,0.00911931818 33.4726705,0.00911931818 C33.1453977,0.00911931818 32.8803409,0.275028409 32.8803409,0.602301136 C32.8803409,0.928721591 33.1453977,1.19463068 33.4726705,1.19463068" id="Fill-89" fill="#F26837" sketch:type="MSShapeGroup"></path>
                        <path d="M41.4453409,1.19463068 C41.7726136,1.19463068 42.0376705,0.928721591 42.0376705,0.602301136 C42.0376705,0.275028409 41.7726136,0.00911931818 41.4453409,0.00911931818 C41.1180682,0.00911931818 40.8521591,0.275028409 40.8521591,0.602301136 C40.8521591,0.928721591 41.1180682,1.19463068 41.4453409,1.19463068" id="Fill-91" fill="#F26837" sketch:type="MSShapeGroup"></path>
                        <path d="M49.4179261,1.19463068 C49.7451989,1.19463068 50.011108,0.928721591 50.011108,0.602301136 C50.011108,0.275028409 49.7451989,0.00911931818 49.4179261,0.00911931818 C49.0906534,0.00911931818 48.8255966,0.275028409 48.8255966,0.602301136 C48.8255966,0.928721591 49.0906534,1.19463068 49.4179261,1.19463068" id="Fill-93" fill="#F26837" sketch:type="MSShapeGroup"></path>
                        <path d="M49.411875,73.9459091 C48.9763636,73.9459091 48.6218182,74.3004545 48.6218182,74.7359659 C48.6218182,75.1723295 48.9763636,75.526875 49.411875,75.526875 C49.8482386,75.526875 50.2027841,75.1723295 50.2027841,74.7359659 C50.2027841,74.3004545 49.8482386,73.9459091 49.411875,73.9459091" id="Fill-95" fill="#F26837" sketch:type="MSShapeGroup"></path>
                        <path d="M41.4396307,73.9459091 C41.0041193,73.9459091 40.6495739,74.3004545 40.6495739,74.7359659 C40.6495739,75.1723295 41.0041193,75.526875 41.4396307,75.526875 C41.875142,75.526875 42.2296875,75.1723295 42.2296875,74.7359659 C42.2296875,74.3004545 41.875142,73.9459091 41.4396307,73.9459091" id="Fill-97" fill="#F26837" sketch:type="MSShapeGroup"></path>
                        <path d="M33.4666193,73.9459091 C33.031108,73.9459091 32.6765625,74.3004545 32.6765625,74.7359659 C32.6765625,75.1723295 33.031108,75.526875 33.4666193,75.526875 C33.902983,75.526875 34.2575284,75.1723295 34.2575284,74.7359659 C34.2575284,74.3004545 33.902983,73.9459091 33.4666193,73.9459091" id="Fill-99" fill="#F26837" sketch:type="MSShapeGroup"></path>
                        <path d="M25.4940341,73.9459091 C25.0576705,73.9459091 24.703125,74.3004545 24.703125,74.7359659 C24.703125,75.1723295 25.0576705,75.526875 25.4940341,75.526875 C25.9303977,75.526875 26.2849432,75.1723295 26.2849432,74.7359659 C26.2849432,74.3004545 25.9303977,73.9459091 25.4940341,73.9459091" id="Fill-101" fill="#F26837" sketch:type="MSShapeGroup"></path>
                        <path d="M57.3852273,73.9459091 C56.9497159,73.9459091 56.5951705,74.3004545 56.5951705,74.7359659 C56.5951705,75.1723295 56.9497159,75.526875 57.3852273,75.526875 C57.8215909,75.526875 58.1761364,75.1723295 58.1761364,74.7359659 C58.1761364,74.3004545 57.8215909,73.9459091 57.3852273,73.9459091" id="Fill-103" fill="#F26837" sketch:type="MSShapeGroup"></path>
                        <path d="M17.5210227,73.9459091 C17.0855114,73.9459091 16.7309659,74.3004545 16.7309659,74.7359659 C16.7309659,75.1723295 17.0855114,75.526875 17.5210227,75.526875 C17.9565341,75.526875 18.3110795,75.1723295 18.3110795,74.7359659 C18.3110795,74.3004545 17.9565341,73.9459091 17.5210227,73.9459091" id="Fill-105" fill="#F26837" sketch:type="MSShapeGroup"></path>
                        <path d="M49.4122159,78.0756818 C49.0857955,78.0756818 48.8198864,78.3415909 48.8198864,78.6680114 C48.8198864,78.9952841 49.0857955,79.2611932 49.4122159,79.2611932 C49.7394886,79.2611932 50.0053977,78.9952841 50.0053977,78.6680114 C50.0053977,78.3415909 49.7394886,78.0756818 49.4122159,78.0756818" id="Fill-107" fill="#F26837" sketch:type="MSShapeGroup"></path>
                        <path d="M41.4396307,78.0756818 C41.112358,78.0756818 40.8473011,78.3415909 40.8473011,78.6680114 C40.8473011,78.9952841 41.112358,79.2611932 41.4396307,79.2611932 C41.7669034,79.2611932 42.0319602,78.9952841 42.0319602,78.6680114 C42.0319602,78.3415909 41.7669034,78.0756818 41.4396307,78.0756818" id="Fill-109" fill="#F26837" sketch:type="MSShapeGroup"></path>
                        <path d="M33.4666193,78.0756818 C33.1393466,78.0756818 32.8742898,78.3415909 32.8742898,78.6680114 C32.8742898,78.9952841 33.1393466,79.2611932 33.4666193,79.2611932 C33.793892,79.2611932 34.0606534,78.9952841 34.0606534,78.6680114 C34.0606534,78.3415909 33.793892,78.0756818 33.4666193,78.0756818" id="Fill-111" fill="#F26837" sketch:type="MSShapeGroup"></path>
                        <path d="M25.4940341,78.0756818 C25.1667614,78.0756818 24.9017045,78.3415909 24.9017045,78.6680114 C24.9017045,78.9952841 25.1667614,79.2611932 25.4940341,79.2611932 C25.8213068,79.2611932 26.0863636,78.9952841 26.0863636,78.6680114 C26.0863636,78.3415909 25.8213068,78.0756818 25.4940341,78.0756818" id="Fill-113" fill="#F26837" sketch:type="MSShapeGroup"></path>
                        <path d="M53.4051136,18.0730398 C54.5173295,18.0730398 55.4207386,17.1679261 55.4207386,16.054858 C55.4207386,14.942642 54.5173295,14.0375284 53.4051136,14.0375284 C52.2920455,14.0375284 51.3869318,14.942642 51.3869318,16.054858 C51.3869318,17.1679261 52.2920455,18.0730398 53.4051136,18.0730398" id="Fill-115" fill="#F26837" sketch:type="MSShapeGroup"></path>
                        <path d="M61.3776989,17.6365057 C62.2495739,17.6365057 62.959517,16.9274148 62.959517,16.0555398 C62.959517,15.1828125 62.2495739,14.4737216 61.3776989,14.4737216 C60.5058239,14.4737216 59.796733,15.1828125 59.796733,16.0555398 C59.796733,16.9274148 60.5058239,17.6365057 61.3776989,17.6365057" id="Fill-117" fill="#F26837" sketch:type="MSShapeGroup"></path>
                        <path d="M69.3497727,16.8455966 C69.7861364,16.8455966 70.1398295,16.4910511 70.1398295,16.0555398 C70.1398295,15.6191761 69.7861364,15.2646307 69.3497727,15.2646307 C68.9134091,15.2646307 68.5588636,15.6191761 68.5588636,16.0555398 C68.5588636,16.4910511 68.9134091,16.8455966 69.3497727,16.8455966" id="Fill-119" fill="#F26837" sketch:type="MSShapeGroup"></path>
                        <path d="M49.4172443,68.4220739 C48.5462216,68.4220739 47.8371307,69.1311648 47.8371307,70.0030398 C47.8371307,70.8749148 48.5462216,71.5840057 49.4172443,71.5840057 C50.2899716,71.5840057 50.9990625,70.8749148 50.9990625,70.0030398 C50.9990625,69.1311648 50.2899716,68.4220739 49.4172443,68.4220739" id="Fill-121" fill="#F26837" sketch:type="MSShapeGroup"></path>
                        <path d="M41.4453409,68.4220739 C40.5734659,68.4220739 39.864375,69.1311648 39.864375,70.0030398 C39.864375,70.8749148 40.5734659,71.5840057 41.4453409,71.5840057 C42.3163636,71.5840057 43.0263068,70.8749148 43.0263068,70.0030398 C43.0263068,69.1311648 42.3163636,68.4220739 41.4453409,68.4220739" id="Fill-123" fill="#F26837" sketch:type="MSShapeGroup"></path>
                        <path d="M33.4719886,68.4220739 C32.6001136,68.4220739 31.8910227,69.1311648 31.8910227,70.0030398 C31.8910227,70.8749148 32.6001136,71.5840057 33.4719886,71.5840057 C34.3447159,71.5840057 35.0538068,70.8749148 35.0538068,70.0030398 C35.0538068,69.1311648 34.3447159,68.4220739 33.4719886,68.4220739" id="Fill-125" fill="#F26837" sketch:type="MSShapeGroup"></path>
                        <path d="M25.5,68.4220739 C24.628125,68.4220739 23.9181818,69.1311648 23.9181818,70.0030398 C23.9181818,70.8749148 24.628125,71.5840057 25.5,71.5840057 C26.3710227,71.5840057 27.0809659,70.8749148 27.0809659,70.0030398 C27.0809659,69.1311648 26.3710227,68.4220739 25.5,68.4220739" id="Fill-127" fill="#F26837" sketch:type="MSShapeGroup"></path>
                        <path d="M65.3638636,69.212642 C64.9283523,69.212642 64.5738068,69.5671875 64.5738068,70.0026989 C64.5738068,70.4390625 64.9283523,70.793608 65.3638636,70.793608 C65.799375,70.793608 66.1539205,70.4390625 66.1539205,70.0026989 C66.1539205,69.5671875 65.799375,69.212642 65.3638636,69.212642" id="Fill-129" fill="#F26837" sketch:type="MSShapeGroup"></path>
                        <path d="M57.3905966,68.4220739 C56.5187216,68.4220739 55.8096307,69.1311648 55.8096307,70.0030398 C55.8096307,70.8749148 56.5187216,71.5840057 57.3905966,71.5840057 C58.2633239,71.5840057 58.9724148,70.8749148 58.9724148,70.0030398 C58.9724148,69.1311648 58.2633239,68.4220739 57.3905966,68.4220739" id="Fill-131" fill="#F26837" sketch:type="MSShapeGroup"></path>
                        <path d="M69.3501989,63.2187784 C68.9146875,63.2187784 68.560142,63.5733239 68.560142,64.0088352 C68.560142,64.4451989 68.9146875,64.7997443 69.3501989,64.7997443 C69.7865625,64.7997443 70.141108,64.4451989 70.141108,64.0088352 C70.141108,63.5733239 69.7865625,63.2187784 69.3501989,63.2187784" id="Fill-133" fill="#F26837" sketch:type="MSShapeGroup"></path>
                        <path d="M61.377017,62.4280398 C60.505142,62.4280398 59.7951989,63.1371307 59.7951989,64.0090057 C59.7951989,64.8808807 60.505142,65.5908239 61.377017,65.5908239 C62.248892,65.5908239 62.9588352,64.8808807 62.9588352,64.0090057 C62.9588352,63.1371307 62.248892,62.4280398 61.377017,62.4280398" id="Fill-135" fill="#F26837" sketch:type="MSShapeGroup"></path>
                        <path d="M53.4044318,61.9913352 C52.2922159,61.9913352 51.3879545,62.8964489 51.3879545,64.009517 C51.3879545,65.121733 52.2922159,66.0268466 53.4044318,66.0268466 C54.5175,66.0268466 55.4234659,65.121733 55.4234659,64.009517 C55.4234659,62.8964489 54.5175,61.9913352 53.4044318,61.9913352" id="Fill-137" fill="#F26837" sketch:type="MSShapeGroup"></path>
                        <path d="M17.5266477,68.4220739 C16.6547727,68.4220739 15.9456818,69.1311648 15.9456818,70.0030398 C15.9456818,70.8749148 16.6547727,71.5840057 17.5266477,71.5840057 C18.3976705,71.5840057 19.1076136,70.8749148 19.1076136,70.0030398 C19.1076136,69.1311648 18.3976705,68.4220739 17.5266477,68.4220739" id="Fill-139" fill="#F26837" sketch:type="MSShapeGroup"></path>
                        <path d="M9.55397727,69.2130682 C9.11846591,69.2130682 8.76392045,69.5676136 8.76392045,70.003125 C8.76392045,70.4386364 9.11846591,70.7940341 9.55397727,70.7940341 C9.99034091,70.7940341 10.3448864,70.4386364 10.3448864,70.003125 C10.3448864,69.5676136 9.99034091,69.2130682 9.55397727,69.2130682" id="Fill-141" fill="#F26837" sketch:type="MSShapeGroup"></path>
                        <path d="M57.3911932,20.0318182 C56.2789773,20.0318182 55.3738636,20.9369318 55.3738636,22.0482955 C55.3738636,23.1613636 56.2789773,24.0664773 57.3911932,24.0664773 C58.5034091,24.0664773 59.4076705,23.1613636 59.4076705,22.0482955 C59.4076705,20.9369318 58.5034091,20.0318182 57.3911932,20.0318182" id="Fill-143" fill="#F26837" sketch:type="MSShapeGroup"></path>
                        <path d="M65.3646307,23.6301136 C66.2356534,23.6301136 66.9455966,22.9210227 66.9455966,22.0491477 C66.9455966,21.1772727 66.2356534,20.4681818 65.3646307,20.4681818 C64.4919034,20.4681818 63.7828125,21.1772727 63.7828125,22.0491477 C63.7828125,22.9210227 64.4919034,23.6301136 65.3646307,23.6301136" id="Fill-145" fill="#F26837" sketch:type="MSShapeGroup"></path>
                        <path d="M73.3364489,22.8394602 C73.7728125,22.8394602 74.127358,22.4849148 74.127358,22.0485511 C74.127358,21.6130398 73.7728125,21.2584943 73.3364489,21.2584943 C72.9009375,21.2584943 72.546392,21.6130398 72.546392,22.0485511 C72.546392,22.4849148 72.9009375,22.8394602 73.3364489,22.8394602" id="Fill-147" fill="#F26837" sketch:type="MSShapeGroup"></path>
                        <path d="M61.3776989,26.025 C60.2646307,26.025 59.359517,26.9301136 59.359517,28.0431818 C59.359517,29.15625 60.2646307,30.0613636 61.3776989,30.0613636 C62.490767,30.0613636 63.3958807,29.15625 63.3958807,28.0431818 C63.3958807,26.9301136 62.490767,26.025 61.3776989,26.025" id="Fill-149" fill="#F26837" sketch:type="MSShapeGroup"></path>
                        <path d="M69.3503693,29.6251705 C70.221392,29.6251705 70.9313352,28.9152273 70.9313352,28.0433523 C70.9313352,27.1714773 70.221392,26.4615341 69.3503693,26.4615341 C68.477642,26.4615341 67.7685511,27.1714773 67.7685511,28.0433523 C67.7685511,28.9152273 68.477642,29.6251705 69.3503693,29.6251705" id="Fill-151" fill="#F26837" sketch:type="MSShapeGroup"></path>
                        <path d="M65.3646307,32.0215057 C64.2515625,32.0215057 63.3455966,32.925767 63.3455966,34.0371307 C63.3455966,35.1501989 64.2515625,36.0561648 65.3646307,36.0561648 C66.4768466,36.0561648 67.3819602,35.1501989 67.3819602,34.0371307 C67.3819602,32.925767 66.4768466,32.0215057 65.3646307,32.0215057" id="Fill-153" fill="#F26837" sketch:type="MSShapeGroup"></path>
                        <g id="Group-157">
                            <mask id="mask-2" sketch:name="Clip 156" fill="white">
                                <use xlink:href="#path-1"></use>
                            </mask>
                            <g id="Clip-156"></g>
                            <path d="M73.3364489,35.6199716 C74.2083239,35.6199716 74.9174148,34.9100284 74.9174148,34.0381534 C74.9174148,33.1662784 74.2083239,32.4580398 73.3364489,32.4580398 C72.4645739,32.4580398 71.755483,33.1662784 71.755483,34.0381534 C71.755483,34.9100284 72.4645739,35.6199716 73.3364489,35.6199716" id="Fill-155" fill="#F26837" sketch:type="MSShapeGroup" mask="url(#mask-2)"></path>
                        </g>
                        <path d="M69.3503693,38.0138352 C68.2373011,38.0138352 67.3313352,38.9189489 67.3313352,40.0303125 C67.3313352,41.144233 68.2373011,42.0493466 69.3503693,42.0493466 C70.4625852,42.0493466 71.3676989,41.144233 71.3676989,40.0303125 C71.3676989,38.9189489 70.4625852,38.0138352 69.3503693,38.0138352" id="Fill-158" fill="#F26837" sketch:type="MSShapeGroup"></path>
                        <path d="M65.3646307,44.0101705 C64.2515625,44.0101705 63.3455966,44.9135795 63.3455966,46.0249432 C63.3455966,47.1388636 64.2515625,48.0439773 65.3646307,48.0439773 C66.4768466,48.0439773 67.3819602,47.1388636 67.3819602,46.0249432 C67.3819602,44.9135795 66.4768466,44.0101705 65.3646307,44.0101705" id="Fill-160" fill="#F26837" sketch:type="MSShapeGroup"></path>
                        <g id="Group-164">
                            <mask id="mask-4" sketch:name="Clip 163" fill="white">
                                <use xlink:href="#path-3"></use>
                            </mask>
                            <g id="Clip-163"></g>
                            <path d="M73.3364489,44.4465341 C72.4645739,44.4465341 71.755483,45.1547727 71.755483,46.0257955 C71.755483,46.8976705 72.4645739,47.6076136 73.3364489,47.6076136 C74.2083239,47.6076136 74.9174148,46.8976705 74.9174148,46.0257955 C74.9174148,45.1547727 74.2083239,44.4465341 73.3364489,44.4465341" id="Fill-162" fill="#F26837" sketch:type="MSShapeGroup" mask="url(#mask-4)"></path>
                        </g>
                        <path d="M61.3776989,50.003608 C60.2646307,50.003608 59.359517,50.9087216 59.359517,52.0200852 C59.359517,53.1331534 60.2646307,54.0391193 61.3776989,54.0391193 C62.490767,54.0391193 63.3958807,53.1331534 63.3958807,52.0200852 C63.3958807,50.9087216 62.490767,50.003608 61.3776989,50.003608" id="Fill-165" fill="#F26837" sketch:type="MSShapeGroup"></path>
                        <path d="M69.3503693,50.4398864 C68.477642,50.4398864 67.7685511,51.1489773 67.7685511,52.0208523 C67.7685511,52.8927273 68.477642,53.6018182 69.3503693,53.6018182 C70.221392,53.6018182 70.9313352,52.8927273 70.9313352,52.0208523 C70.9313352,51.1489773 70.221392,50.4398864 69.3503693,50.4398864" id="Fill-167" fill="#F26837" sketch:type="MSShapeGroup"></path>
                        <path d="M57.3911932,55.997983 C56.2789773,55.997983 55.3738636,56.9030966 55.3738636,58.0153125 C55.3738636,59.1266761 56.2789773,60.0317898 57.3911932,60.0317898 C58.5034091,60.0317898 59.4076705,59.1266761 59.4076705,58.0153125 C59.4076705,56.9030966 58.5034091,55.997983 57.3911932,55.997983" id="Fill-169" fill="#F26837" sketch:type="MSShapeGroup"></path>
                        <path d="M65.3646307,56.4343466 C64.4919034,56.4343466 63.7828125,57.1434375 63.7828125,58.0153125 C63.7828125,58.8871875 64.4919034,59.5954261 65.3646307,59.5954261 C66.2356534,59.5954261 66.9455966,58.8871875 66.9455966,58.0153125 C66.9455966,57.1434375 66.2356534,56.4343466 65.3646307,56.4343466" id="Fill-171" fill="#F26837" sketch:type="MSShapeGroup"></path>
                        <path d="M73.3364489,57.225 C72.9009375,57.225 72.546392,57.5795455 72.546392,58.0150568 C72.546392,58.4505682 72.9009375,58.8051136 73.3364489,58.8051136 C73.7728125,58.8051136 74.127358,58.4505682 74.127358,58.0150568 C74.127358,57.5795455 73.7728125,57.225 73.3364489,57.225" id="Fill-173" fill="#F26837" sketch:type="MSShapeGroup"></path>
                        <path d="M29.4868466,61.9913352 C28.3737784,61.9913352 27.4686648,62.8964489 27.4686648,64.0078125 C27.4686648,65.1208807 28.3737784,66.0268466 29.4868466,66.0268466 C30.5990625,66.0268466 31.5024716,65.1208807 31.5024716,64.0078125 C31.5024716,62.8964489 30.5990625,61.9913352 29.4868466,61.9913352" id="Fill-175" fill="#F26837" sketch:type="MSShapeGroup"></path>
                        <path d="M37.4591761,61.9913352 C36.346108,61.9913352 35.4409943,62.8964489 35.4409943,64.0078125 C35.4409943,65.1208807 36.346108,66.0268466 37.4591761,66.0268466 C38.5722443,66.0268466 39.477358,65.1208807 39.477358,64.0078125 C39.477358,62.8964489 38.5722443,61.9913352 37.4591761,61.9913352" id="Fill-177" fill="#F26837" sketch:type="MSShapeGroup"></path>
                        <path d="M45.4318466,61.9913352 C44.3187784,61.9913352 43.4128125,62.8964489 43.4128125,64.0078125 C43.4128125,65.1208807 44.3187784,66.0268466 45.4318466,66.0268466 C46.5440625,66.0268466 47.4491761,65.1208807 47.4491761,64.0078125 C47.4491761,62.8964489 46.5440625,61.9913352 45.4318466,61.9913352" id="Fill-179" fill="#F26837" sketch:type="MSShapeGroup"></path>
                        <path d="M29.4868466,18.0730398 C30.5990625,18.0730398 31.5024716,17.1679261 31.5024716,16.054858 C31.5024716,14.942642 30.5990625,14.0375284 29.4868466,14.0375284 C28.3737784,14.0375284 27.4686648,14.942642 27.4686648,16.054858 C27.4686648,17.1679261 28.3737784,18.0730398 29.4868466,18.0730398" id="Fill-181" fill="#F26837" sketch:type="MSShapeGroup"></path>
                        <path d="M37.4591761,18.0730398 C38.5722443,18.0730398 39.477358,17.1679261 39.477358,16.054858 C39.477358,14.942642 38.5722443,14.0375284 37.4591761,14.0375284 C36.346108,14.0375284 35.4409943,14.942642 35.4409943,16.054858 C35.4409943,17.1679261 36.346108,18.0730398 37.4591761,18.0730398" id="Fill-183" fill="#F26837" sketch:type="MSShapeGroup"></path>
                        <path d="M45.4318466,18.0730398 C46.5440625,18.0730398 47.4491761,17.1679261 47.4491761,16.054858 C47.4491761,14.942642 46.5440625,14.0375284 45.4318466,14.0375284 C44.3187784,14.0375284 43.4128125,14.942642 43.4128125,16.054858 C43.4128125,17.1679261 44.3187784,18.0730398 45.4318466,18.0730398" id="Fill-185" fill="#F26837" sketch:type="MSShapeGroup"></path>
                        <path d="M27.9173011,31.6284375 C27.8226989,31.3778693 27.5789489,31.2091193 27.3096307,31.2091193 L26.9252557,31.2091193 C26.6567898,31.2091193 26.4130398,31.377017 26.3184375,31.6284375 L19.9442898,48.4616761 C19.8684375,48.6619602 19.8965625,48.8852557 20.0175852,49.0608239 C20.138608,49.236392 20.3380398,49.3420739 20.5519602,49.3420739 L20.9133239,49.3420739 C21.1817898,49.3420739 21.426392,49.1724716 21.5209943,48.9201989 L23.1369034,44.6170739 L27.6752557,44.6170739 C28.1226989,44.6170739 28.4849148,44.2540057 28.4849148,43.8074148 C28.4849148,43.3599716 28.1226989,42.9969034 27.6752557,42.9969034 L23.7454261,42.9969034 L27.1161648,34.0190625 L32.7155966,48.923608 C32.8101989,49.1741761 33.0539489,49.3420739 33.3224148,49.3420739 L33.6829261,49.3420739 C33.8968466,49.3420739 34.0962784,49.236392 34.2173011,49.0616761 C34.3391761,48.8852557 34.3655966,48.661108 34.2897443,48.4616761 L27.9173011,31.6284375 Z" id="Fill-187" fill="#FEFEFE" sketch:type="MSShapeGroup"></path>
                        <path d="M48.737983,40.8040057 L43.5203693,40.8040057 L43.5203693,32.8199148 L48.737983,32.8199148 C51.8982102,32.8199148 53.0189489,34.9710511 53.0189489,36.8128125 C53.0189489,38.6537216 51.8982102,40.8040057 48.737983,40.8040057 L48.737983,40.8040057 Z M50.9828693,42.0841193 C53.2328693,41.3068466 54.6783239,39.2537216 54.6783239,36.8128125 C54.6783239,33.5128125 52.285142,31.2091193 48.8590057,31.2091193 L42.5104261,31.2091193 C42.1524716,31.2091193 41.860142,31.5005966 41.860142,31.8585511 L41.860142,48.692642 C41.860142,49.0505966 42.1524716,49.3420739 42.5104261,49.3420739 L42.8700852,49.3420739 C43.2280398,49.3420739 43.5203693,49.0505966 43.5203693,48.692642 L43.5203693,42.4156534 L48.8590057,42.4156534 C49.0149716,42.4156534 49.1717898,42.4096875 49.309858,42.4011648 L52.9303125,49.0037216 C53.044517,49.2125284 53.2626989,49.3420739 53.500483,49.3420739 L53.884858,49.3420739 C54.113267,49.3420739 54.3280398,49.2193466 54.4430966,49.0224716 C54.559858,48.8264489 54.5641193,48.5792898 54.4533239,48.3790057 L50.9828693,42.0841193 Z" id="Fill-189" fill="#FEFEFE" sketch:type="MSShapeGroup"></path>
                        <path d="M37.6332955,31.2089489 L37.2719318,31.2089489 C36.9139773,31.2089489 36.6225,31.5004261 36.6225,31.8583807 L36.6225,48.6924716 C36.6225,49.0504261 36.9139773,49.3419034 37.2719318,49.3419034 L37.6332955,49.3419034 C37.99125,49.3419034 38.2827273,49.0504261 38.2827273,48.6924716 L38.2827273,31.8583807 C38.2827273,31.5004261 37.99125,31.2089489 37.6332955,31.2089489" id="Fill-191" fill="#FEFEFE" sketch:type="MSShapeGroup"></path>
                    </g>
                </g>
            </g>
        </g>
    </g>
</svg>