<?xml version="1.0" encoding="utf-8"?>
<!-- Generator: Adobe Illustrator 17.1.0, SVG Export Plug-In . SVG Version: 6.00 Build 0)  -->
<!DOCTYPE svg PUBLIC "-//W3C//DTD SVG 1.1//EN" "http://www.w3.org/Graphics/SVG/1.1/DTD/svg11.dtd">
<svg version="1.1" id="Layer_1" xmlns="http://www.w3.org/2000/svg" xmlns:xlink="http://www.w3.org/1999/xlink" x="0px" y="0px"
	 viewBox="0 0 144 54" enable-background="new 0 0 144 54" xml:space="preserve">
<g>
	<g>
		<g>
			<path fill="#4c4c4c" d="M139.201,5.915c0,1.328-1.025,2.362-2.359,2.362s-2.361-1.035-2.361-2.362c0-1.326,1.027-2.36,2.361-2.36
				S139.201,4.589,139.201,5.915z M134.852,5.915c0,1.13,0.848,2.025,1.99,2.025c1.141,0,1.99-0.895,1.99-2.025
				c0-1.129-0.85-2.023-1.99-2.023C135.699,3.892,134.852,4.785,134.852,5.915z M136.32,7.28h-0.334v-2.73h1.045
				c0.615,0,0.891,0.267,0.891,0.755c0,0.482-0.32,0.698-0.686,0.761l0.811,1.213h-0.393l-0.77-1.213h-0.564V7.28z M136.766,5.782
				c0.412,0,0.82-0.014,0.82-0.476c0-0.381-0.32-0.47-0.65-0.47h-0.615v0.946H136.766z"/>
		</g>
		<g>
			<polygon fill="#4c4c4c" points="45.556,46.565 46.227,46.565 46.227,2.801 1.788,2.801 1.788,47.237 46.227,47.237
				46.227,46.565 45.556,46.565 45.556,45.894 3.132,45.894 3.132,4.145 44.884,4.145 44.884,46.565 45.556,46.565 45.556,45.894
							"/>
			<polygon fill="#4c4c4c" points="88.648,46.565 89.32,46.565 89.32,2.801 44.884,2.801 44.884,47.237 89.32,47.237 89.32,46.565
				88.648,46.565 88.648,45.894 46.227,45.894 46.227,4.145 87.977,4.145 87.977,46.565 88.648,46.565 88.648,45.894 			"/>
			<polygon fill="#4c4c4c" points="131.654,46.565 132.326,46.565 132.326,2.801 87.889,2.801 87.889,47.237 132.326,47.237
				132.326,46.565 131.654,46.565 131.654,45.894 89.232,45.894 89.232,4.145 130.982,4.145 130.982,46.565 131.654,46.565
				131.654,45.894 			"/>
			<path fill="#4c4c4c" d="M28.194,36.011V23.296c0-1.878-0.361-3.246-1.084-4.111c-0.721-0.861-1.901-1.294-3.539-1.294
				c-0.756,0-1.565,0.213-2.424,0.638c-0.859,0.422-1.531,0.953-2.014,1.579v15.902h-5.15v-22.09h3.713l0.949,2.06
				c1.402-1.623,3.47-2.434,6.206-2.434c2.622,0,4.697,0.785,6.215,2.361c1.518,1.568,2.28,3.764,2.28,6.574v13.528H28.194z"/>
			<path fill="#4c4c4c" d="M65.549,17.952c2.369,0,4.07,0.533,5.098,1.596c1.025,1.062,1.539,2.895,1.539,5.502
				c0,2.438-0.518,4.225-1.55,5.356c-1.036,1.129-2.739,1.696-5.108,1.696c-1.247,0-2.338-0.377-3.268-1.132V19.393
				C63.217,18.436,64.314,17.952,65.549,17.952z M66.694,36.446c3.369,0,6.025-0.976,7.974-2.928
				c1.945-1.948,2.916-4.735,2.916-8.345c0-7.749-3.518-11.626-10.559-11.626c-1.885,0-3.474,0.621-4.765,1.856v-1.482h-5.153
				v30.716h5.153v-9.161C63.594,36.12,65.07,36.446,66.694,36.446z"/>
			<path fill="#4c4c4c" d="M115.898,18.761c-0.918-0.58-1.922-0.869-3.018-0.869c-1.188,0-2.244,0.541-3.168,1.624
				c-0.924,1.083-1.383,2.403-1.383,3.964v12.531h-5.152v-22.09h5.152v2.11c1.436-1.657,3.342-2.484,5.723-2.484
				c1.748,0,3.09,0.268,4.02,0.804L115.898,18.761z"/>
		</g>
	</g>
</g>
</svg>
