<?xml version="1.0" encoding="UTF-8" standalone="no"?>
<svg width="53px" height="80px" viewBox="0 0 53 80" version="1.1" xmlns="http://www.w3.org/2000/svg" xmlns:xlink="http://www.w3.org/1999/xlink">
    <!-- Generator: Sketch 3.6.1 (26313) - http://www.bohemiancoding.com/sketch -->
    <title>Fill 1</title>
    <desc>Created with Sketch.</desc>
    <defs></defs>
    <g id="Page-1" stroke="none" stroke-width="1" fill="none" fill-rule="evenodd" opacity="0.480060634">
        <g id="Home" transform="translate(-493.000000, -325.000000)" fill="#FFFFFF">
            <g id="Video" transform="translate(0.000000, 8.000000)">
                <path d="M493.000037,322.472112 C493.000037,322.472112 492.993623,320.969815 493.150747,320.073567 C493.511491,318.002097 495.5044,317.006444 497.021126,317.000031 C498.069688,316.995221 499.009225,317.549965 499.963192,318.263436 L543.80718,352.479576 C543.901775,352.558138 543.994767,352.636699 544.081346,352.724881 C545.620519,354.246418 545.91713,355.825674 545.897891,356.877442 C545.851395,359.046714 544.451709,360.428764 544.171131,360.680483 C527.77573,373.373851 501.308365,394.314623 501.308365,394.314623 C499.725903,395.462589 498.454481,396.453432 496.99387,396.459845 C495.299176,396.464655 494.080664,395.520308 493.508284,394.627267 C493.19083,394.130242 493.017673,393.553053 493.017673,392.964639 L493.000037,322.472112 Z" id="Fill-1"></path>
            </g>
        </g>
    </g>
</svg>