<?xml version="1.0" ?><svg height="50px" id="Layer_1" version="1.1" viewBox="0 0 49.6 49.6" width="50px" xml:space="preserve" xmlns="http://www.w3.org/2000/svg" xmlns:xlink="http://www.w3.org/1999/xlink"><path
fill="#fff" transform="translate(-4.4, -4.2)" d="M29.2066,4.3736c-13.5995,0-24.625,11.0234-24.625,24.623s11.0255,24.625,24.625,24.625  c13.5986,0,24.624-11.0254,24.624-24.625S42.8052,4.3736,29.2066,4.3736z M44.517,37.0628  c-0.183,0.4282-1.0084,1.0352-3.8952,1.4813c-0.2358,0.0362-0.3273,0.3435-0.468,0.9879c-0.0511,0.2346-0.103,0.4649-0.1743,0.7072  c-0.0615,0.2103-0.1925,0.3086-0.4129,0.3086h-0.0359c-0.153,0-0.3704-0.0273-0.646-0.0814  c-0.4887-0.0956-1.0367-0.1837-1.7339-0.1837c-0.4072,0-0.8284,0.0356-1.2518,0.1056c-0.8661,0.1444-1.6014,0.6636-2.3798,1.2138  c-1.1315,0.8002-2.2993,1.6257-4.1193,1.6257c-0.0792,0-0.157-0.0023-0.2347-0.006h-0.0001  c-0.0496,0.0039-0.1014,0.006-0.1533,0.006c-1.8195,0-2.9874-0.8255-4.1167-1.624c-0.7798-0.551-1.5156-1.0712-2.3826-1.2156  c-0.423-0.07-0.8442-0.1056-1.2511-0.1056c-0.7332,0-1.3115,0.1132-1.7338,0.1958c-0.2566,0.0502-0.478,0.0933-0.6462,0.0933  c-0.1758,0-0.3662-0.038-0.449-0.3208c-0.072-0.245-0.124-0.4823-0.174-0.7119c-0.129-0.5908-0.2205-0.9541-0.4681-0.9921  c-2.8858-0.4457-3.7118-1.0536-3.8959-1.4849c-0.0261-0.0616-0.0409-0.1235-0.0445-0.1846c-0.0093-0.1656,0.108-0.312,0.2718-0.3387  c4.4362-0.7305,6.4256-5.2646,6.5082-5.4572c0.0023-0.0053,0.0046-0.0105,0.0071-0.0158c0.2715-0.5502,0.3246-1.0278,0.1586-1.4193  c-0.3044-0.7175-1.2974-1.0328-1.9546-1.2413c-0.1608-0.0508-0.3133-0.099-0.4335-0.1465c-1.3115-0.5185-1.4207-1.0507-1.3691-1.322  c0.0879-0.4622,0.7056-0.7842,1.2051-0.7842c0.137,0,0.2576,0.0243,0.359,0.0716c0.59,0.2764,1.1217,0.4164,1.5805,0.4164  c0.6339,0,0.9106-0.2664,0.9445-0.3013c-0.0161-0.3002-0.0361-0.6138-0.0565-0.9374c-0.1321-2.0974-0.2959-4.7035,0.3677-6.191  c1.9887-4.4591,6.206-4.8055,7.4512-4.8055c0.0319,0,0.5459-0.0055,0.5459-0.0055l0.0737-0.0003c1.248,0,5.4745,0.347,7.4644,4.8086  c0.6637,1.4884,0.4995,4.0967,0.3672,6.1925l-0.0055,0.0911c-0.0184,0.2918-0.0361,0.5755-0.0509,0.847  c0.0317,0.0323,0.2863,0.2773,0.861,0.2994h0.0006c0.4368-0.0167,0.9387-0.1559,1.4896-0.414  c0.1614-0.0753,0.3408-0.0912,0.4628-0.0912c0.1865,0,0.3754,0.0361,0.5323,0.1016l0.0095,0.0038  c0.4456,0.158,0.7375,0.4702,0.7437,0.7966c0.0058,0.3073-0.2288,0.7693-1.3796,1.2239c-0.1193,0.0469-0.2717,0.0953-0.4332,0.1465  c-0.658,0.2088-1.6505,0.5239-1.9548,1.2411c-0.1663,0.3914-0.113,0.8687,0.1584,1.4192c0.0024,0.0053,0.0052,0.0104,0.0073,0.0161  c0.0826,0.1923,2.0701,4.7252,6.5084,5.4565c0.1639,0.027,0.2809,0.1732,0.2719,0.3391  C44.5586,36.9393,44.5435,37.002,44.517,37.0628z"/></svg>
